PathFileType	4	(X/Y/Z)	c:/Users/goper/Files/vsCode/490R/osim_files/C03/C03_Slow_03.trc
DataRate	CameraRate	NumFrames	NumMarkers	Units                	OrigDataRate	OrigDataStartFrame	OrigNumFrames
250.00	250.00	4	36	mm	250.0	1519	2429
                Frame#	Time	LPSIS			LASIS			LTH1			LTH2			LTH3			LTH4			LLFE			LMFE			LSH1			LSH2			LSH3			LSH4			LLMAL			LMMAL			LCAL			LMTP5			LTOE			LMTP1			RPSIS			RASIS			RTH1			RTH2			RTH3			RTH4			RLFE			RMFE			RSH1			RSH2			RSH3			RSH4			RLMAL			RMMAL			RCAL			RMTP1			RTOE			RMTP5		
		X1	Y1	Z1	X2	Y2	Z2	X3	Y3	Z3	X4	Y4	Z4	X5	Y5	Z5	X6	Y6	Z6	X7	Y7	Z7	X8	Y8	Z8	X9	Y9	Z9	X10	Y10	Z10	X11	Y11	Z11	X12	Y12	Z12	X13	Y13	Z13	X14	Y14	Z14	X15	Y15	Z15	X16	Y16	Z16	X17	Y17	Z17	X18	Y18	Z18	X19	Y19	Z19	X20	Y20	Z20	X21	Y21	Z21	X22	Y22	Z22	X23	Y23	Z23	X24	Y24	Z24	X25	Y25	Z25	X26	Y26	Z26	X27	Y27	Z27	X28	Y28	Z28	X29	Y29	Z29	X30	Y30	Z30	X31	Y31	Z31	X32	Y32	Z32	X33	Y33	Z33	X34	Y34	Z34	X35	Y35	Z35	X36	Y36	Z36

1519	6.07200	-938.33734	1036.78174	341.70218	-1120.93188	981.78357	375.89114	-989.13641	633.26202	422.97455	-990.13605	571.93781	412.84039	-1063.82715	630.83630	410.03656	-1055.02417	570.16895	401.11758	-1006.11060	485.49481	395.60272	-988.30981	485.01410	284.24826	-934.50964	302.89377	400.18637	-937.31262	256.76630	392.46298	-995.01508	305.02661	398.75803	-989.40680	257.52374	392.07675	-970.05542	99.50977	357.02127	-982.16907	112.43227	277.14987	-900.80756	65.93112	328.73972	-1106.37402	50.42881	363.81888	-1132.68164	66.12362	306.89679	-1105.90234	53.39335	269.80530	-939.35535	1024.98315	228.51198	-1108.58203	986.18274	171.39621	-1125.11194	607.71741	159.53362	-1151.74011	552.68494	172.14252	-1177.03809	631.76135	129.19902	-1211.52881	580.77490	135.19997	-1222.65161	514.76312	148.24844	-1236.14917	528.34259	262.67276	-1058.65710	391.87610	166.76363	-1039.94763	348.50137	167.76561	-1105.68030	361.47946	138.62634	-1080.36499	326.41916	143.22137	-1002.91022	191.24663	168.93857	-1040.52881	177.15538	240.52196	-937.82990	182.57077	228.01280	-1114.12463	72.28480	205.63492	-1132.18152	80.68755	161.81239	-1057.27271	82.11081	116.14718
1520	6.07600	-942.15186	1036.86877	341.52029	-1124.19702	981.51318	376.04074	-991.49335	633.46722	422.52493	-992.29871	572.13831	412.39182	-1066.18030	630.84436	409.69165	-1057.21265	570.18604	400.78418	-1008.01514	485.58258	395.23856	-990.49005	485.05026	283.84637	-935.50757	303.24799	399.81479	-938.10236	257.15405	392.08371	-996.04077	305.15921	398.42377	-990.16864	257.68335	391.74442	-970.41418	99.63177	356.80783	-982.32983	112.43439	276.94931	-900.84912	66.14274	328.63278	-1106.42627	50.42079	363.77475	-1132.81946	66.09133	306.80719	-1105.96936	53.31322	269.78671	-943.08801	1025.33801	228.20575	-1112.76050	986.51379	171.41612	-1130.72827	608.37036	158.97401	-1157.47961	553.46948	171.63104	-1182.36572	632.75464	129.25302	-1217.77844	582.08704	135.41577	-1228.82703	515.82111	148.38260	-1241.69556	529.36163	262.73163	-1067.18079	389.50217	166.76387	-1049.31079	345.77399	167.67264	-1114.48657	360.17526	138.22223	-1090.08667	324.53247	142.95821	-1016.30737	187.47412	168.71902	-1053.67517	173.99280	239.75810	-950.98669	177.28468	227.98857	-1129.07397	70.64967	203.14578	-1146.98376	79.87590	159.98015	-1072.03088	80.10468	114.79008
1521	6.08000	-946.19025	1036.76697	341.31799	-1127.51257	981.51660	375.99341	-993.86597	633.57959	422.09680	-994.45050	572.20654	412.01746	-1068.59668	630.68988	409.29559	-1059.47095	570.10242	400.44019	-1009.78180	485.64789	394.81329	-992.51794	485.17450	283.41635	-936.64520	303.60550	399.40054	-938.99036	257.47195	391.68521	-997.11426	305.22223	398.08728	-991.06085	257.87537	391.36194	-970.71027	99.70297	356.63641	-982.50287	112.44598	276.76746	-900.93854	66.26254	328.55048	-1106.45276	50.38138	363.79590	-1132.91943	65.99123	306.76007	-1106.06909	53.24868	269.77386	-947.17981	1025.64783	227.95328	-1117.00073	986.86401	171.39624	-1136.26172	608.83789	158.46645	-1163.29370	554.03693	171.15536	-1188.01135	633.79083	128.92967	-1223.32483	582.97894	135.38057	-1234.66052	516.73676	148.43262	-1247.25891	530.25842	262.73938	-1075.69678	386.97766	166.79333	-1058.81653	342.92419	167.57050	-1123.56970	358.75729	138.18265	-1099.87976	322.54004	142.70079	-1029.12537	183.89029	168.26414	-1066.57971	170.83614	238.67857	-964.52551	171.96062	227.80409	-1145.01514	69.53403	202.25154	-1161.67456	79.16922	158.12183	-1086.72437	78.18415	113.46561
1522	6.08400	-950.18213	1036.72290	341.12643	-1131.13110	981.21082	375.85791	-996.24231	633.72003	421.70108	-995.67316	571.69507	411.32629	-1071.01196	630.62183	408.98639	-1061.67773	569.99982	399.97906	-1011.76367	485.66415	394.40323	-994.55408	485.26108	282.99594	-937.63855	303.93207	399.03781	-939.86456	257.80780	391.41235	-998.12665	305.34323	397.78925	-991.86951	257.97009	391.05270	-970.92047	99.80171	356.49213	-982.99475	112.72173	276.95422	-901.14722	66.26977	328.47150	-1106.52344	50.35020	363.79745	-1133.00574	65.88747	306.73715	-1105.63708	52.81469	270.60132	-951.63763	1025.72815	227.93710	-1121.19556	987.14209	171.36670	-1141.74109	609.29327	158.02428	-1168.96411	554.60394	170.70036	-1193.58826	634.63074	128.87842	-1229.36938	584.18414	135.56055	-1240.55774	517.61041	148.48949	-1252.72644	531.09851	262.82129	-1084.12756	384.49728	166.70123	-1068.12695	340.15726	167.40332	-1132.64771	357.29578	137.98236	-1109.77808	320.59775	142.47316	-1042.13013	180.41547	167.82036	-1080.43835	167.68770	238.41736	-977.56976	166.83502	227.60681	-1160.53064	68.39169	200.65511	-1176.65686	78.46301	156.57349	-1101.55176	76.31402	112.15211
